<?xml version="1.0" encoding="UTF-8" standalone="no"?>
<!DOCTYPE svg PUBLIC "-//W3C//DTD SVG 1.1//EN" "http://www.w3.org/Graphics/SVG/1.1/DTD/svg11.dtd">
<svg width="100%" height="100%" viewBox="0 0 280 120" version="1.1" xmlns="http://www.w3.org/2000/svg" xmlns:xlink="http://www.w3.org/1999/xlink" xml:space="preserve" style="fill-rule:evenodd;clip-rule:evenodd;stroke-linejoin:round;stroke-miterlimit:1.41421;">
    <g id="Logo">
        <g transform="matrix(1.12666,-0.000535261,0.000535261,1.12666,-5.12549,21.7841)">
            <path d="M84.596,6.385C84.596,18.104 77.448,23.963 63.151,23.963L56.085,23.963L51.55,45.127L47.928,45.127L58.827,-6.271L69.901,-6.271C74.636,-6.271 78.268,-5.187 80.8,-3.019C83.331,-0.851 84.596,2.284 84.596,6.385ZM56.647,20.729L63.362,20.729C69.268,20.729 73.645,19.598 76.493,17.336C79.341,15.075 80.764,11.495 80.764,6.596C80.764,0.174 76.909,-3.037 69.198,-3.037L61.78,-3.037L56.647,20.729Z" style="fill:rgb(96,96,96);fill-rule:nonzero;"/>
        </g>
        <g transform="matrix(0.833711,0,0,0.811047,35.9995,11.67)">
            <ellipse cx="89.999" cy="49.428" rx="25.001" ry="25.699" style="fill:rgb(58,133,194);"/>
        </g>
        <g transform="matrix(0.380681,0,0,0.380681,82.3074,71.1649)">
            <path d="M230.219,21.948C226.141,21.948 222.491,23.084 219.268,25.358C216.046,27.631 213.491,30.965 211.604,35.36C209.717,39.754 208.774,44.541 208.774,49.721C208.774,54.104 209.917,57.602 212.202,60.215C214.487,62.829 217.634,64.135 221.641,64.135C224.899,64.135 228.673,63.467 232.962,62.131L232.962,67.37C230.946,68.096 229.024,68.623 227.196,68.952C225.368,69.28 223.165,69.444 220.587,69.444C214.915,69.444 210.462,67.692 207.227,64.188C203.993,60.684 202.376,55.909 202.376,49.862C202.376,43.745 203.612,38.055 206.085,32.793C208.557,27.532 211.88,23.518 216.051,20.752C220.223,17.987 224.946,16.604 230.219,16.604C234.837,16.604 238.915,17.541 242.454,19.416L240.028,24.373C236.794,22.756 233.524,21.948 230.219,21.948Z" style="fill:rgb(96,96,96);fill-rule:nonzero;"/>
            <path d="M262.985,68.741L257.149,23.178L256.868,23.178C256.704,24.866 256.37,27.18 255.866,30.122C255.362,33.063 254.923,35.401 254.548,37.135L247.868,68.741L242.173,68.741L253.036,17.342L261.614,17.342L266.852,59.67L267.169,59.67L290.337,17.342L299.688,17.342L289.036,68.741L282.919,68.741C285.872,54.913 288.134,44.301 289.704,36.907C291.274,29.512 292.376,24.913 293.009,23.108L292.798,23.108L267.591,68.741L262.985,68.741Z" style="fill:rgb(96,96,96);fill-rule:nonzero;"/>
            <path d="M331.575,53.834C331.575,58.78 329.928,62.618 326.635,65.348C323.342,68.079 318.708,69.444 312.731,69.444C310.247,69.444 308.061,69.274 306.175,68.934C304.288,68.594 302.512,68.026 300.848,67.229L300.848,61.252C304.645,63.221 308.63,64.206 312.801,64.206C316.598,64.206 319.61,63.321 321.837,61.551C324.063,59.782 325.176,57.35 325.176,54.256C325.176,52.428 324.561,50.817 323.331,49.422C322.1,48.028 319.809,46.381 316.458,44.483C312.919,42.491 310.464,40.498 309.092,38.506C307.721,36.514 307.036,34.159 307.036,31.44C307.036,27.057 308.583,23.489 311.676,20.735C314.77,17.981 318.837,16.604 323.876,16.604C326.196,16.604 328.358,16.827 330.362,17.272C332.366,17.717 334.481,18.479 336.708,19.557L334.387,24.831C332.841,23.94 331.106,23.237 329.184,22.721C327.262,22.206 325.493,21.948 323.876,21.948C320.735,21.948 318.21,22.762 316.3,24.391C314.389,26.02 313.434,28.229 313.434,31.018C313.434,32.284 313.634,33.368 314.032,34.27C314.43,35.172 315.063,36.022 315.93,36.819C316.798,37.616 318.462,38.729 320.923,40.159C324.368,42.221 326.694,43.838 327.901,45.01C329.108,46.182 330.022,47.477 330.643,48.895C331.264,50.313 331.575,51.959 331.575,53.834Z" style="fill:rgb(96,96,96);fill-rule:nonzero;"/>
        </g>
        <g transform="matrix(1,0,0,1,15.5394,26.7485)">
            <path d="M119.782,45.15L116.337,45.15L124.458,6.935L127.833,6.935L119.782,45.15ZM125.97,-2.873C125.97,-4.162 126.227,-5.193 126.743,-5.967C127.259,-6.74 127.962,-7.127 128.852,-7.127C130.188,-7.127 130.856,-6.283 130.856,-4.596C130.856,-3.26 130.599,-2.205 130.083,-1.432C129.567,-0.658 128.899,-0.272 128.079,-0.272C127.399,-0.272 126.878,-0.5 126.515,-0.957C126.151,-1.414 125.97,-2.053 125.97,-2.873Z" style="fill:rgb(96,96,96);fill-rule:nonzero;"/>
            <path d="M157.224,45.15L162.462,20.822C162.954,18.666 163.2,16.838 163.2,15.338C163.2,13.463 162.69,11.998 161.671,10.943C160.651,9.889 159.075,9.361 156.942,9.361C154.317,9.361 151.85,10.146 149.542,11.717C147.233,13.287 145.288,15.484 143.706,18.309C142.124,21.133 140.911,24.49 140.067,28.381L136.481,45.15L133.036,45.15L141.157,6.935L144.04,6.935L142.739,14.705L142.95,14.705C146.794,9.127 151.669,6.338 157.575,6.338C160.622,6.338 162.907,7.088 164.431,8.588C165.954,10.088 166.716,12.244 166.716,15.057C166.716,16.697 166.434,18.83 165.872,21.455L160.669,45.15L157.224,45.15Z" style="fill:rgb(96,96,96);fill-rule:nonzero;"/>
            <path d="M194.946,6.935L194.313,9.783L184.364,9.783L179.618,32.107C179.102,34.428 178.845,36.35 178.845,37.873C178.845,41.131 180.321,42.76 183.274,42.76C184.868,42.76 186.649,42.455 188.618,41.846L188.618,44.869C186.251,45.525 184.259,45.853 182.641,45.853C180.321,45.853 178.528,45.215 177.263,43.937C175.997,42.66 175.364,40.803 175.364,38.365C175.364,36.654 175.704,34.24 176.384,31.123L180.919,9.783L174.52,9.783L175.013,7.428L181.481,6.83L184.891,-2.065L186.825,-2.065L184.891,6.935L194.946,6.935Z" style="fill:rgb(96,96,96);fill-rule:nonzero;"/>
        </g>
    </g>
</svg>
