<?xml version="1.0" encoding="utf-8"?>
<!-- Generator: Adobe Illustrator 21.0.0, SVG Export Plug-In . SVG Version: 6.00 Build 0)  -->
<svg version="1.1" id="Layer_1" xmlns="http://www.w3.org/2000/svg" xmlns:xlink="http://www.w3.org/1999/xlink" x="0px" y="0px"
	 viewBox="0 0 131.2 74.7" style="enable-background:new 0 0 131.2 74.7;" xml:space="preserve">
<style type="text/css">
	.st0{fill:#4685C5;}
	.st1{opacity:0.25;}
	.st2{opacity:0.25;fill:#4685C5;}
</style>
<g>
	<g>
		<g>
			<path class="st0" d="M31.4,27.7c0,9.3-5.8,15.8-13.8,15.8c-4.5,0-8.1-2-10.5-5.5v14.8H0V12.6h7.1v4.8c2.4-3.4,6-5.5,10.5-5.5
				C25.6,12,31.4,18.5,31.4,27.7z M24.4,27.7c0-5.7-3.6-9.7-8.7-9.7c-5,0-8.5,4-8.5,9.7s3.5,9.7,8.5,9.7
				C20.8,37.4,24.4,33.3,24.4,27.7z"/>
			<path class="st0" d="M33.4,27.7c0-8.6,7.4-15.7,16.1-15.7s16.1,7.2,16.1,15.7s-7.4,15.8-16.1,15.8S33.4,36.3,33.4,27.7z
				 M58.7,27.7c0-5.2-4.2-9.7-9.2-9.7c-5,0-9.2,4.4-9.2,9.7c0,5.3,4.2,9.7,9.2,9.7C54.5,37.4,58.7,33,58.7,27.7z"/>
			<path class="st0" d="M68.5,4c0-2.2,1.8-4,4.1-4c2.2,0,4,1.9,4,4c0,2.2-1.8,4.1-4,4.1C70.3,8.1,68.5,6.2,68.5,4z M68.9,12.6H76
				v30.1h-7.1V12.6z"/>
			<path class="st0" d="M108.6,23.6v19.2h-6.9V25c0-4.1-2.6-7-6.4-7s-6.8,2.5-7.3,5.7v19.1H81V12.6h7.1v4c1.9-2.8,5.4-4.7,9.3-4.7
				C104,12,108.6,16.8,108.6,23.6z"/>
			<path class="st0" d="M130.5,41.1c-1.7,1.5-4.1,2.4-6.4,2.4c-5,0-8.5-3.6-8.5-8.7V18.5h-4.4v-5.9h4.4V4.4h6.9v8.3h6.8v5.9h-6.8
				v15.4c0,2,1.3,3.5,3,3.5c1.2,0,2.3-0.5,3-1.1L130.5,41.1z"/>
		</g>
		<g class="st1">
			<path class="st0" d="M69.4,63.2c0-6.3,5.2-11.5,11.4-11.5c3.1,0,5.9,1.3,8,3.4l-1.1,1.1c-1.8-1.8-4.2-3-6.9-3
				c-5.3,0-9.8,4.6-9.8,10c0,5.4,4.5,10,9.8,10c2.7,0,5.1-1.1,6.9-3l1.1,1.1c-2.1,2.1-4.9,3.4-8,3.4C74.6,74.7,69.4,69.5,69.4,63.2z
				"/>
			<path class="st0" d="M91.2,52.1h1.6l8.7,16.4l8.7-16.4h1.6v22.3h-1.6V55.4l-8.7,16.4l-8.7-16.4v18.9h-1.6V52.1z"/>
			<path class="st0" d="M114.8,71.2l1-1.3c2,2,4.8,3.2,7.9,3.2c3.6,0,5.9-1.9,5.9-4.5c0-2.5-2-3.8-6.5-4.8c-5-1.1-7.3-2.7-7.3-5.8
				c0-3.7,3-6.4,7.2-6.4c2.9,0,5.6,1.2,7.7,3.2l-1,1.3c-1.9-1.8-4.3-2.9-6.8-2.9c-3.2,0-5.5,2-5.5,4.7c0,2.2,2,3.3,6.5,4.4
				c4.9,1.2,7.3,2.8,7.3,6.2c0,3.5-3,6.2-7.6,6.2C120.2,74.7,117.1,73.4,114.8,71.2z"/>
		</g>
	</g>
	<g>
		<path class="st2" d="M70.4,48.1c-2.3-1.9-4.8-3.5-7.5-4.6l-0.5-0.2L62,43.6c-1.4,1.1-3,2.1-4.6,2.8c-1.7,0.7-3.4,1.2-5.3,1.5
			l-0.1,0c-0.8,0.1-1.7,0.2-2.5,0.2c-0.8,0-1.7,0-2.5-0.2l-0.1,0c-1.8-0.2-3.6-0.7-5.3-1.5h0c-1.6-0.7-3.2-1.6-4.6-2.8l-0.4-0.3
			l-0.5,0.2c-2.6,1.2-5.2,2.7-7.5,4.6l-0.9,0.7l0.9,0.7c5,4,7.9,9.8,7.9,15.8c0,2.8-0.6,5.4-1.8,8l-0.6,1.3h30.8l-0.6-1.3
			c-1.2-2.6-1.8-5.3-1.8-8c0-6,2.9-11.7,7.9-15.8l0.9-0.7L70.4,48.1z M60.8,65.3c0,2.6,0.5,5.1,1.4,7.5H36.9
			c0.9-2.4,1.4-4.9,1.4-7.5c0-6.2-2.8-12.1-7.7-16.5c1.8-1.4,3.7-2.5,5.7-3.5c1.3,1,2.7,1.8,4.2,2.5c0.7,0.3,1.4,0.6,2.2,0.8
			c2,0.7,4.1,1,6.3,1.1c0.2,0,0.4,0,0.5,0c0.2,0,0.4,0,0.5,0c2.2,0,4.3-0.4,6.3-1.1h0c0.1,0,0.1,0,0.2-0.1c0.7-0.2,1.5-0.5,2.2-0.9
			c1.4-0.6,2.7-1.4,4-2.4c2,0.9,3.9,2.1,5.7,3.5C63.5,53.2,60.8,59.1,60.8,65.3z"/>
		<path class="st2" d="M59.7,54.1c0,1.5-1.2,2.7-2.7,2.7c-1.5,0-2.7-1.2-2.7-2.7H59.7z"/>
	</g>
</g>
</svg>
